<?xml version="1.0" encoding="utf-8"?>
<svg viewBox="0 0 180.859 208.11" xmlns="http://www.w3.org/2000/svg">
  <path d="M 313.125 50.284 C 313.125 135.932 243.693 205.364 158.045 205.364 C 82.653 205.364 19.825 151.564 5.86 80.262 L 110.891 -70.579 C 106.886 -70.347 102.897 -69.912 98.941 -69.275 L 3.882 67.247 C 3.276 61.676 2.965 56.016 2.965 50.284 C 2.965 48.789 2.986 47.299 3.028 45.814 L 79.874 -64.55 C 74.534 -62.743 69.313 -60.549 64.256 -57.977 L 4.597 27.705 C 15.529 -47.241 80.066 -104.796 158.045 -104.796 C 243.693 -104.796 313.125 -35.364 313.125 50.284 Z M 234.253 60.391 C 234.911 54.756 235.156 49.099 234.998 43.464 L 155.328 157.884 C 160.668 156.077 165.889 153.883 170.945 151.311 L 234.253 60.391 Z M 232.813 23.935 C 232.038 20.004 231.062 16.113 229.89 12.276 L 124.305 163.915 C 128.31 163.682 132.299 163.247 136.255 162.61 L 232.813 23.935 Z M 224.32 -2.383 C 222.897 -5.487 221.337 -8.534 219.638 -11.516 L 98.434 162.554 C 101.82 163.112 105.22 163.519 108.624 163.776 L 224.32 -2.383 Z M 212.012 -23.223 C 210.147 -25.741 208.173 -28.195 206.091 -30.577 L 75.858 156.461 C 78.814 157.588 81.8 158.588 84.808 159.463 L 212.012 -23.223 Z M 196.87 -39.994 C 194.645 -42.023 192.327 -43.982 189.916 -45.863 L 55.908 146.595 C 58.509 148.203 61.15 149.698 63.826 151.081 L 196.87 -39.994 Z M 179.29 -53.261 C 176.69 -54.87 174.048 -56.365 171.372 -57.747 L 38.329 133.326 C 40.554 135.357 42.872 137.316 45.283 139.196 L 179.29 -53.261 Z M 159.341 -63.128 C 156.384 -64.254 153.398 -65.254 150.39 -66.129 L 23.187 116.555 C 25.052 119.073 27.026 121.527 29.108 123.909 L 159.341 -63.128 Z M 136.763 -69.22 C 133.377 -69.778 129.977 -70.184 126.573 -70.442 L 10.879 95.714 C 12.302 98.818 13.862 101.865 15.561 104.848 L 136.763 -69.22 Z"/>
</svg>
